<?xml version="1.0" encoding="utf-8"?>
<!-- Svg Vector Icons : http://www.onlinewebfonts.com/icon -->
<!DOCTYPE svg PUBLIC "-//W3C//DTD SVG 1.1//EN" "http://www.w3.org/Graphics/SVG/1.1/DTD/svg11.dtd">
<svg version="1.1" xmlns="http://www.w3.org/2000/svg" xmlns:xlink="http://www.w3.org/1999/xlink" x="0px" y="0px" viewBox="0 0 1000 1000" enable-background="new 0 0 1000 1000" xml:space="preserve">
<metadata> Svg Vector Icons : http://www.onlinewebfonts.com/icon </metadata>
<g><g transform="translate(0.000000,511.000000) scale(0.100000,-0.100000)"><path d="M2031.7,4726.1c-445.9-26.6-953.2-114.6-1397-243.4c-554.3-159.5-591.1-204.5-490.9-607.5C473,2557.9,1542.8,1490.2,3036,991.1c151.4-51.1,372.3-112.5,490.9-137l216.8-47.1l-2-509.3c-2-566.6-45-985.9-147.3-1429.8l-55.2-243.4l-153.4-85.9c-200.4-108.4-325.2-223-462.3-419.3c-229.1-327.3-521.6-535.9-846.8-603.4c-335.4-69.6-609.5,53.2-756.8,337.5c-114.6,225-403,212.7-472.5-20.4c-30.7-100.2-2.1-180,126.8-364.1c384.5-548.2,1129.1-630,1802-196.4c167.7,108.4,437.7,376.4,542,535.9c132.9,208.6,288.4,319.1,495,351.8c276.1,42.9,507.3-69.6,652.5-319.1c102.3-173.9,425.5-505.2,580.9-597.3c296.6-171.8,535.9-237.3,895.9-237.3c233.2,0,300.7,8.2,429.5,47c169.8,53.2,335.5,133,497,237.3c137.1,90,439.8,398.9,529.8,544.1c139.1,220.9,329.3,329.3,576.8,331.4c249.5,0,443.8-116.6,556.3-337.5c28.6-53.2,79.8-116.6,116.6-137c171.8-106.4,382.5,8.2,382.5,206.6c0,34.8-28.6,116.6-61.4,180c-132.9,249.6-364.1,445.9-627.9,537.9c-184.1,61.4-529.8,67.5-701.6,8.2c-274.1-92.1-484.8-251.6-648.4-493c-45-67.5-102.3-139.1-124.8-159.5c-38.9-36.8-40.9-32.7-143.2,206.6c-173.9,411.1-290.5,865.2-360,1395C6323-117.5,6278,776.3,6302.6,798.8c10.2,8.2,96.1,32.7,192.3,51.1c235.2,49.1,574.8,159.6,859.1,282.3c1212.9,519.5,2088.4,1423.6,2440.2,2522c135,419.3,139.1,570.7,22.5,662.7c-90,71.6-554.3,210.7-990,296.6c-431.6,88-754.8,118.6-1186.4,118.6c-1012.5,0-1671.1-237.3-2427.9-871.4L5001.7,3685L4793,3860.9c-668.9,560.4-1268.2,805.9-2119.1,867.3c-153.4,10.2-302.7,18.4-331.4,16.4C2313.9,4744.5,2174.9,4736.3,2031.7,4726.1z"/><path d="M7824.4-2862.5c-337.5-36.8-644.3-239.3-865.2-574.8c-169.8-253.6-484.8-484.8-762.9-558.4c-370.2-96.1-814.1,30.7-1084.1,310.9c-73.7,75.7-182.1,214.8-245.5,306.8c-180,272-407,435.7-685.2,497c-167.7,36.8-509.3,18.4-662.7-36.8c-239.3-87.9-441.8-257.7-617.7-515.5c-92-137.1-312.9-347.7-439.8-425.4c-200.4-120.7-331.4-155.5-558.4-157.5c-173.9,0-216.8,6.1-292.5,47c-116.6,61.4-227,175.9-288.4,296.6c-59.3,116.6-128.9,163.6-237.3,163.6c-102.3,0-190.2-55.2-227-143.2c-40.9-94.1-36.8-126.8,34.8-270c124.8-251.6,384.5-472.5,650.4-556.3c261.8-81.8,646.4-51.1,947,75.7c300.7,126.8,666.8,433.6,838.6,703.6c135,212.7,310.9,325.2,537.9,343.6C4124.2-3335,4341-3457.7,4476-3695c34.8-63.4,161.6-212.7,280.2-331.4c190.2-192.3,237.3-229.1,409.1-312.9c615.7-298.6,1260-235.2,1800,180c128.9,100.2,341.6,333.4,454.1,503.2c83.9,120.7,139.1,171.8,282.3,243.4c110.5,55.2,319.1,75.7,443.9,42.9c126.8-34.8,274.1-143.2,347.7-257.7c112.5-173.9,149.3-212.7,229.1-237.3c145.2-43,308.9,81.8,308.9,239.3c0,100.2-100.2,270-249.6,427.5C8526-2928,8223.2-2821.6,7824.4-2862.5z"/></g></g>
</svg>